<svg width="223" height="194" viewBox="0 0 223 194" fill="none" xmlns="http://www.w3.org/2000/svg">
<rect x="59.8578" y="110.521" width="9.48529" height="83.4788" fill="#FDDA5E"/>
<rect width="9.69232" height="83.4026" transform="matrix(0.721634 -0.692275 0.684243 0.729254 32.709 125.024)" fill="#FDDA5E"/>
<rect width="9.65411" height="83.7297" transform="matrix(0.937367 0.348343 -0.341604 0.939844 74.5164 111.052)" fill="#FDDA5E"/>
<rect width="9.65405" height="83.7303" transform="matrix(0.937694 -0.347463 0.340737 0.940159 45.9487 114.398)" fill="#FDDA5E"/>
<rect width="9.72996" height="83.0779" transform="matrix(0.415204 0.909728 -0.906193 0.422864 100.362 130.089)" fill="#FDDA5E"/>
<rect width="9.72857" height="83.0898" transform="matrix(0.430282 -0.902694 0.898929 0.438095 25.301 138.271)" fill="#FDDA5E"/>
<rect width="9.68895" height="83.4316" transform="matrix(0.743116 0.669163 -0.660939 0.75044 88.7115 117.533)" fill="#FDDA5E"/>
<rect width="9.74874" height="82.9148" transform="matrix(-0.00327009 0.999995 -0.999994 -0.00334341 106.229 145.534)" fill="#FDDA5E"/>
<ellipse cx="65.1274" cy="152.261" rx="34.7794" ry="31.1576" fill="#FDDA5E"/>
<rect x="152.603" y="110.521" width="9.48529" height="83.4788" fill="#FDDA5E"/>
<rect width="9.69232" height="83.4026" transform="matrix(0.721634 -0.692275 0.684243 0.729254 125.265 125.024)" fill="#FDDA5E"/>
<rect width="9.65411" height="83.7297" transform="matrix(0.937367 0.348343 -0.341604 0.939844 167.072 111.052)" fill="#FDDA5E"/>
<rect width="9.65405" height="83.7303" transform="matrix(0.937694 -0.347463 0.340737 0.940159 138.505 114.398)" fill="#FDDA5E"/>
<rect width="9.72996" height="83.0779" transform="matrix(0.415204 0.909728 -0.906193 0.422864 192.918 130.089)" fill="#FDDA5E"/>
<rect width="9.72857" height="83.0898" transform="matrix(0.430282 -0.902694 0.898929 0.438095 117.857 138.271)" fill="#FDDA5E"/>
<rect width="9.68895" height="83.4316" transform="matrix(0.743116 0.669163 -0.660939 0.75044 181.268 117.533)" fill="#FDDA5E"/>
<rect width="9.74874" height="82.9148" transform="matrix(-0.00327009 0.999995 -0.999994 -0.00334341 198.785 145.534)" fill="#FDDA5E"/>
<ellipse cx="157.873" cy="152.261" rx="34.7794" ry="31.1576" fill="#FDDA5E"/>
<rect x="59.8578" y="110.521" width="9.48529" height="83.4788" fill="#FDDA5E"/>
<rect width="9.69232" height="83.4026" transform="matrix(0.721634 -0.692275 0.684243 0.729254 32.709 125.024)" fill="#FDDA5E"/>
<rect width="9.65411" height="83.7297" transform="matrix(0.937367 0.348343 -0.341604 0.939844 74.5164 111.052)" fill="#FDDA5E"/>
<rect width="9.65405" height="83.7303" transform="matrix(0.937694 -0.347463 0.340737 0.940159 45.9487 114.398)" fill="#FDDA5E"/>
<rect width="9.72996" height="83.0779" transform="matrix(0.415204 0.909728 -0.906193 0.422864 100.362 130.089)" fill="#FDDA5E"/>
<rect width="9.72857" height="83.0898" transform="matrix(0.430282 -0.902694 0.898929 0.438095 25.301 138.271)" fill="#FDDA5E"/>
<rect width="9.68895" height="83.4316" transform="matrix(0.743116 0.669163 -0.660939 0.75044 88.7115 117.533)" fill="#FDDA5E"/>
<rect width="9.74874" height="82.9148" transform="matrix(-0.00327009 0.999995 -0.999994 -0.00334341 106.229 145.534)" fill="#FDDA5E"/>
<ellipse cx="65.1274" cy="152.261" rx="34.7794" ry="31.1576" fill="#FDDA5E"/>
<g filter="url(#filter0_d)">
<ellipse cx="65.1274" cy="151.673" rx="15.8088" ry="16.4606" fill="white"/>
</g>
<g filter="url(#filter1_d)">
<ellipse cx="157.873" cy="151.673" rx="15.8088" ry="16.4606" fill="white"/>
</g>
<g filter="url(#filter2_d)">
<rect x="4" y="110.521" width="215" height="39.9758" fill="#FDDA5E"/>
</g>
<rect x="4" y="96.4121" width="215" height="8.2303" fill="#FDDA5E"/>
<g filter="url(#filter3_d)">
<rect x="4" y="25.8666" width="67.451" height="64.6667" fill="#FDDA5E"/>
</g>
<ellipse cx="37.7255" cy="31.1576" rx="33.7255" ry="31.1576" fill="#FDDA5E"/>
<g filter="url(#filter4_d)">
<rect x="74.6127" y="48.2061" width="144.387" height="42.3273" fill="#FDDA5E"/>
</g>
<rect x="46.1569" y="25.8666" width="169.681" height="5.87879" fill="#FDDA5E"/>
<defs>
<filter id="filter0_d" x="45.3186" y="135.212" width="39.6177" height="40.9212" filterUnits="userSpaceOnUse" color-interpolation-filters="sRGB">
<feFlood flood-opacity="0" result="BackgroundImageFix"/>
<feColorMatrix in="SourceAlpha" type="matrix" values="0 0 0 0 0 0 0 0 0 0 0 0 0 0 0 0 0 0 127 0" result="hardAlpha"/>
<feOffset dy="4"/>
<feGaussianBlur stdDeviation="2"/>
<feComposite in2="hardAlpha" operator="out"/>
<feColorMatrix type="matrix" values="0 0 0 0 0 0 0 0 0 0 0 0 0 0 0 0 0 0 0.25 0"/>
<feBlend mode="normal" in2="BackgroundImageFix" result="effect1_dropShadow"/>
<feBlend mode="normal" in="SourceGraphic" in2="effect1_dropShadow" result="shape"/>
</filter>
<filter id="filter1_d" x="138.064" y="135.212" width="39.6177" height="40.9212" filterUnits="userSpaceOnUse" color-interpolation-filters="sRGB">
<feFlood flood-opacity="0" result="BackgroundImageFix"/>
<feColorMatrix in="SourceAlpha" type="matrix" values="0 0 0 0 0 0 0 0 0 0 0 0 0 0 0 0 0 0 127 0" result="hardAlpha"/>
<feOffset dy="4"/>
<feGaussianBlur stdDeviation="2"/>
<feComposite in2="hardAlpha" operator="out"/>
<feColorMatrix type="matrix" values="0 0 0 0 0 0 0 0 0 0 0 0 0 0 0 0 0 0 0.25 0"/>
<feBlend mode="normal" in2="BackgroundImageFix" result="effect1_dropShadow"/>
<feBlend mode="normal" in="SourceGraphic" in2="effect1_dropShadow" result="shape"/>
</filter>
<filter id="filter2_d" x="0" y="110.521" width="223" height="47.9758" filterUnits="userSpaceOnUse" color-interpolation-filters="sRGB">
<feFlood flood-opacity="0" result="BackgroundImageFix"/>
<feColorMatrix in="SourceAlpha" type="matrix" values="0 0 0 0 0 0 0 0 0 0 0 0 0 0 0 0 0 0 127 0" result="hardAlpha"/>
<feOffset dy="4"/>
<feGaussianBlur stdDeviation="2"/>
<feComposite in2="hardAlpha" operator="out"/>
<feColorMatrix type="matrix" values="0 0 0 0 0 0 0 0 0 0 0 0 0 0 0 0 0 0 0.25 0"/>
<feBlend mode="normal" in2="BackgroundImageFix" result="effect1_dropShadow"/>
<feBlend mode="normal" in="SourceGraphic" in2="effect1_dropShadow" result="shape"/>
</filter>
<filter id="filter3_d" x="0" y="25.8666" width="75.451" height="72.6667" filterUnits="userSpaceOnUse" color-interpolation-filters="sRGB">
<feFlood flood-opacity="0" result="BackgroundImageFix"/>
<feColorMatrix in="SourceAlpha" type="matrix" values="0 0 0 0 0 0 0 0 0 0 0 0 0 0 0 0 0 0 127 0" result="hardAlpha"/>
<feOffset dy="4"/>
<feGaussianBlur stdDeviation="2"/>
<feComposite in2="hardAlpha" operator="out"/>
<feColorMatrix type="matrix" values="0 0 0 0 0 0 0 0 0 0 0 0 0 0 0 0 0 0 0.25 0"/>
<feBlend mode="normal" in2="BackgroundImageFix" result="effect1_dropShadow"/>
<feBlend mode="normal" in="SourceGraphic" in2="effect1_dropShadow" result="shape"/>
</filter>
<filter id="filter4_d" x="70.6127" y="48.2061" width="152.387" height="50.3273" filterUnits="userSpaceOnUse" color-interpolation-filters="sRGB">
<feFlood flood-opacity="0" result="BackgroundImageFix"/>
<feColorMatrix in="SourceAlpha" type="matrix" values="0 0 0 0 0 0 0 0 0 0 0 0 0 0 0 0 0 0 127 0" result="hardAlpha"/>
<feOffset dy="4"/>
<feGaussianBlur stdDeviation="2"/>
<feComposite in2="hardAlpha" operator="out"/>
<feColorMatrix type="matrix" values="0 0 0 0 0 0 0 0 0 0 0 0 0 0 0 0 0 0 0.25 0"/>
<feBlend mode="normal" in2="BackgroundImageFix" result="effect1_dropShadow"/>
<feBlend mode="normal" in="SourceGraphic" in2="effect1_dropShadow" result="shape"/>
</filter>
</defs>
</svg>
